<?xml version="1.0" encoding="UTF-8" standalone="no"?>
<!-- Created with Inkscape (http://www.inkscape.org/) -->

<svg
   width="120"
   height="120"
   viewBox="0 0 31.75 31.75"
   version="1.1"
   id="svg5"
   inkscape:version="1.1 (c4e8f9ed74, 2021-05-24)"
   sodipodi:docname="favicon.svg"
   xmlns:inkscape="http://www.inkscape.org/namespaces/inkscape"
   xmlns:sodipodi="http://sodipodi.sourceforge.net/DTD/sodipodi-0.dtd"
   xmlns="http://www.w3.org/2000/svg"
   xmlns:svg="http://www.w3.org/2000/svg">
  <sodipodi:namedview
     id="namedview7"
     pagecolor="#ffffff"
     bordercolor="#666666"
     borderopacity="1.0"
     inkscape:pageshadow="2"
     inkscape:pageopacity="0.0"
     inkscape:pagecheckerboard="0"
     inkscape:document-units="px"
     showgrid="false"
     inkscape:zoom="3.6041667"
     inkscape:cx="43.144509"
     inkscape:cy="47.583815"
     inkscape:window-width="1920"
     inkscape:window-height="1080"
     inkscape:window-x="1920"
     inkscape:window-y="0"
     inkscape:window-maximized="1"
     inkscape:current-layer="layer1" />
  <defs
     id="defs2">
    <rect
       x="12.789232"
       y="19.694348"
       width="263.86278"
       height="113.36495"
       id="rect5417" />
    <rect
       x="612.30483"
       y="684.30466"
       width="516.34382"
       height="140.95113"
       id="rect422906" />
    <rect
       x="346.64589"
       y="200.91733"
       width="715.76009"
       height="104.01144"
       id="rect295235" />
    <rect
       x="1531.8884"
       y="0"
       width="220.65851"
       height="65.964977"
       id="rect267808" />
    <rect
       x="75.627496"
       y="203.40858"
       width="705.67337"
       height="588.66827"
       id="rect196844" />
    <rect
       x="151.99624"
       y="269.17095"
       width="949.10333"
       height="506.99732"
       id="rect96660" />
    <rect
       x="151.99624"
       y="269.17095"
       width="949.10333"
       height="506.99732"
       id="rect115436" />
    <rect
       x="151.99624"
       y="269.17095"
       width="949.10333"
       height="506.99732"
       id="rect115442" />
    <rect
       x="151.99624"
       y="269.17095"
       width="949.10333"
       height="506.99732"
       id="rect175833" />
    <rect
       x="151.99624"
       y="269.17095"
       width="949.10333"
       height="506.99732"
       id="rect175835" />
    <rect
       x="151.99624"
       y="269.17095"
       width="949.10333"
       height="506.99732"
       id="rect175837" />
    <rect
       x="1531.8884"
       y="0"
       width="220.65851"
       height="65.964977"
       id="rect275093" />
    <rect
       x="1531.8884"
       y="0"
       width="220.65851"
       height="65.964977"
       id="rect275873" />
    <rect
       x="1531.8884"
       y="0"
       width="351.61879"
       height="50.246469"
       id="rect278887" />
    <rect
       x="346.64589"
       y="200.91733"
       width="1096.7293"
       height="70.31443"
       id="rect318740" />
    <rect
       x="346.64589"
       y="200.91733"
       width="1096.7293"
       height="70.31443"
       id="rect502855" />
    <clipPath
       clipPathUnits="userSpaceOnUse"
       id="clipPath4699">
      <path
         inkscape:connector-curvature="0"
         id="path4701"
         d="m 37.297463,125.59159 c -1.449194,0 -2.677943,0.14978 -3.686079,0.44907 -1.008137,0.29929 -1.796087,0.71655 -2.363164,1.25212 -0.567076,0.5277 -0.972304,1.14635 -1.216464,1.85519 -0.244157,0.70885 -0.366384,1.49227 -0.366384,2.35076 0,0.85849 0.07864,1.64243 0.236162,2.35127 0.157522,0.70885 0.472598,1.35452 0.94516,1.93735 0.480441,0.58283 1.169704,1.05519 2.067576,1.41749 0.37805,0.16539 1.027732,0.36626 1.949233,0.60254 0.921499,0.22841 1.61076,0.41777 2.067576,0.56741 0.456808,0.14177 0.886097,0.37019 1.287775,0.68523 0.401682,0.31504 0.602548,0.71678 0.602548,1.2051 0,0.60645 -0.05109,1.05527 -0.153479,1.34668 -0.102391,0.28355 -0.366379,0.46837 -0.791684,0.55501 -0.346548,0 -0.630065,-0.0471 -0.850593,-0.14159 -0.220533,-0.0945 -0.389839,-0.26382 -0.507979,-0.50798 -0.110262,-0.24416 -0.165364,-0.59882 -0.165364,-1.0635 v -1.33481 h -6.485911 v 5.32836 c 0.228409,0.39381 0.645665,0.74794 1.252122,1.06298 0.614333,0.31505 1.315109,0.58305 2.102712,0.80357 0.787609,0.21266 1.52395,0.36993 2.209168,0.47233 0.693095,0.10238 1.256636,0.15348 1.68982,0.15348 1.220787,-0.0945 2.153994,-0.18467 2.799828,-0.27131 0.653717,-0.0866 1.338969,-0.26396 2.055689,-0.53175 0.716721,-0.26779 1.346874,-0.67353 1.890323,-1.21698 0.551326,-0.54344 0.964576,-1.26827 1.240234,-2.17402 0.338675,-1.07902 0.507982,-2.09488 0.507982,-3.04788 0,-1.44919 -0.397727,-2.69747 -1.19321,-3.74499 -0.787609,-1.04752 -2.020366,-1.77235 -3.697965,-2.17403 -0.46469,-0.10238 -0.937048,-0.20056 -1.417484,-0.29507 -0.472567,-0.0945 -0.93341,-0.23226 -1.382345,-0.41341 -0.44106,-0.18902 -0.815247,-0.46103 -1.122412,-0.81546 -0.299289,-0.35442 -0.448551,-0.79923 -0.448551,-1.3348 0.04725,-0.26778 0.185002,-0.48819 0.413411,-0.66146 0.228407,-0.17327 0.476356,-0.25993 0.744141,-0.25993 0.787604,0 1.181322,0.5986 1.181322,1.79576 0,0.35442 -0.01553,0.63393 -0.04702,0.8387 h 6.095751 v -4.95008 c -0.700968,-0.42531 -1.417269,-0.78746 -2.149739,-1.08676 -0.732475,-0.30716 -1.547977,-0.55162 -2.445846,-0.73277 -0.889994,-0.18115 -1.838719,-0.27182 -2.846855,-0.27182 z m 9.912057,0.20103 v 3.99303 c 0.433183,0.0866 0.700661,0.32308 0.803052,0.709 0.110265,0.37806 0.165365,0.90551 0.165365,1.58285 v 8.56537 c 0,0.59858 -0.05109,1.05541 -0.15348,1.37046 -0.102391,0.31504 -0.373877,0.55899 -0.814937,0.73226 V 146.55 h 9.722921 c 1.244418,0 2.311361,-0.11821 3.201355,-0.3545 0.897869,-0.23628 1.630207,-0.59843 2.197283,-1.08675 0.574955,-0.49619 0.996736,-1.12635 1.26452,-1.89033 0.267788,-0.77185 0.401527,-1.70105 0.401527,-2.78794 0,-0.82698 -0.129731,-1.57134 -0.389641,-2.23294 -0.259909,-0.66158 -0.677683,-1.21711 -1.252636,-1.66604 -0.567076,-0.45683 -1.291391,-0.74034 -2.17351,-0.8506 1.181405,-0.18115 2.047481,-0.68907 2.598807,-1.52394 0.551325,-0.83486 0.827341,-1.91383 0.827339,-3.23701 2e-6,-1.53583 -0.370174,-2.67792 -1.110526,-3.42615 -0.732472,-0.74822 -1.677701,-1.21658 -2.835486,-1.4056 -1.149903,-0.1969 -2.630609,-0.29558 -4.442106,-0.29558 z m 7.253822,4.38319 c 0.551325,0 1.02368,0.0666 1.417484,0.20051 0.401682,0.13389 0.708739,0.34277 0.92139,0.62631 0.220528,0.28354 0.330729,0.64169 0.330729,1.07487 -0.05513,0.68522 -0.295061,1.17361 -0.720368,1.46503 -0.417433,0.28353 -1.067117,0.4253 -1.949235,0.4253 z m 0,7.61969 c 0.929375,0 1.602597,0.14978 2.02003,0.44907 0.42532,0.29141 0.641712,0.7758 0.649573,1.45314 0,0.55133 -0.09015,1.00415 -0.271301,1.35857 -0.173276,0.35443 -0.449289,0.62242 -0.827339,0.80357 -0.37805,0.18118 -0.901496,0.28336 -1.570963,0.30696 z"
         style="font-style:normal;font-variant:normal;font-weight:normal;font-stretch:normal;font-size:medium;line-height:1.25;font-family:AardvarkBold;-inkscape-font-specification:AardvarkBold;letter-spacing:0px;word-spacing:0px;opacity:0.47000002;fill:#ff0000;fill-opacity:1;stroke:none;stroke-width:0.26458332" />
    </clipPath>
  </defs>
  <g
     inkscape:label="Layer 1"
     inkscape:groupmode="layer"
     id="layer1">
    <path
       style="fill:#f4a261;fill-opacity:1;stroke:none;stroke-width:0.214013;stroke-linecap:square;stroke-linejoin:miter;stroke-miterlimit:4;stroke-dasharray:none;stroke-opacity:1"
       d="M 13.830241,1.3229368 10.36948,2.2502996 10.478654,4.2550749 A 12.824597,12.824597 0 0 0 8.5127549,5.3937071 L 6.8280569,4.2950367 4.294841,6.8284385 5.3855141,8.5007801 A 12.824597,12.824597 0 0 0 4.2543307,10.478854 L 2.2502793,10.369676 1.3229166,13.83044 3.1111575,14.737093 a 12.824597,12.824597 0 0 0 -0.00872,2.280351 l -1.7795203,0.902295 0.9271832,3.460764 2.0047762,-0.109177 a 12.824597,12.824597 0 0 0 1.1386321,1.965903 l -1.0986671,1.684694 2.5334024,2.533219 1.6723409,-1.090673 a 12.824597,12.824597 0 0 0 1.9780701,1.131184 l -0.109174,2.004046 3.460761,0.927364 0.906661,-1.788241 a 12.824597,12.824597 0 0 0 2.280353,0.0087 l 0.902296,1.779519 3.460757,-0.927183 -0.109175,-2.004775 a 12.824597,12.824597 0 0 0 1.965901,-1.138629 l 1.684694,1.098667 2.533214,-2.533402 -1.090489,-1.672162 a 12.824597,12.824597 0 0 0 1.131007,-1.978253 l 2.004052,0.109178 0.927363,-3.460764 -1.788245,-0.906654 a 12.824597,12.824597 0 0 0 0.0088,-2.280534 l 1.779652,-0.902096 -0.927363,-3.460765 -2.004776,0.109178 A 12.824597,12.824597 0 0 0 26.356312,8.5129441 L 27.454979,6.82825 24.921584,4.2948515 23.249419,5.3855239 A 12.824597,12.824597 0 0 0 21.271166,4.2545205 L 21.38034,2.2502898 17.919761,1.3231103 17.012925,3.1113507 a 12.824597,12.824597 0 0 0 -2.280529,-0.00872 z m 3.207347,3.7746665 a 10.851582,10.851582 0 0 1 9.319234,7.9689667 10.851582,10.851582 0 0 1 0.293741,1.645818 H 24.335517 A 8.5497311,8.5497311 0 0 0 17.037588,7.414832 Z m -2.325219,0.00175 V 7.4144036 A 8.5497311,8.5497311 0 0 0 7.4146329,14.712325 H 5.0974044 A 10.851582,10.851582 0 0 1 13.066188,5.3932827 10.851582,10.851582 0 0 1 14.712369,5.0993581 Z M 5.0992215,17.037552 h 2.3150462 a 8.5497311,8.5497311 0 0 0 7.2981013,7.297739 v 2.317226 A 10.851582,10.851582 0 0 1 5.3931422,18.683732 10.851582,10.851582 0 0 1 5.0992215,17.037552 Z m 19.2359335,0 h 2.317218 a 10.851582,10.851582 0 0 1 -7.968967,9.31941 10.851582,10.851582 0 0 1 -1.645818,0.293741 v -2.31505 a 8.5497311,8.5497311 0 0 0 7.297567,-7.298101 z"
       id="rect6217" />
  </g>
</svg>
